PathFileType	4	(X/Y/Z)	C:/Users/DISI/Documents/SIV_Franzin_Parola/Rigid-Body Object Trackig/Logs/Alza_001.trc
DataRate	CameraRate	NumFrames	NumMarkers	Units	OrigDataRate	OrigDataStartFrame	OrigNumFrames
360	360	74	25	m	360	7885	10514
Frame#	Time	Marker1			Marker2			Marker3			Marker4			Marker5			Marker6			Unlabeled 1323			Unlabeled 1324			Unlabeled 1325			Unlabeled 1326			Unlabeled 1328			Unlabeled 1329			Unlabeled 1330			Unlabeled 1331			Unlabeled 1332			Unlabeled 1333			Unlabeled 1334			Unlabeled 1335			Unlabeled 1336			Unlabeled 1337			Unlabeled 1338			Unlabeled 1340			Unlabeled 1341			Unlabeled 1342			Unlabeled 1344			
		X1	Y1	Z1	X2	Y2	Z2	X3	Y3	Z3	X4	Y4	Z4	X5	Y5	Z5	X6	Y6	Z6	X7	Y7	Z7	X8	Y8	Z8	X9	Y9	Z9	X10	Y10	Z10	X11	Y11	Z11	X12	Y12	Z12	X13	Y13	Z13	X14	Y14	Z14	X15	Y15	Z15	X16	Y16	Z16	X17	Y17	Z17	X18	Y18	Z18	X19	Y19	Z19	X20	Y20	Z20	X21	Y21	Z21	X22	Y22	Z22	X23	Y23	Z23	X24	Y24	Z24	X25	Y25	Z25
7885	21.9028																																																																											
7886	21.9056																																																																											
7887	21.9083	0.144309	0.140173	0.0872267	0.077248	0.14366	0.0838715	0.164104	0.137756	0.209047	0.0741088	0.144251	0.209856	0.161653	0.14037	0.134753	0.17679	0.138588	0.166973																																																									
7888	21.9111	0.144305	0.140167	0.087235	0.0772575	0.143661	0.0838792	0.164068	0.137763	0.20904	0.0741103	0.14425	0.209852	0.161644	0.140341	0.13476	0.176774	0.138602	0.166989																																																									
7889	21.9139																																																																											
7890	21.9167	0.144322	0.14017	0.0872291	0.0772655	0.143669	0.0838944	0.164085	0.137764	0.209043	0.0741176	0.144249	0.20985	0.161681	0.140341	0.134766	0.176777	0.13859	0.166994																																																									
7891	21.9194																																																																											
7892	21.9222																																																																											
7893	21.925	0.144313	0.140179	0.0872274	0.0772527	0.143693	0.0838816	0.164077	0.137766	0.209026	0.0741263	0.144277	0.209867	0.161673	0.140346	0.134774	0.176791	0.138599	0.167002																																																									
7894	21.9278	0.144328	0.140167	0.0872351	0.0772546	0.143679	0.0838776	0.164083	0.137742	0.209021	0.0741132	0.14427	0.209862	0.161666	0.140352	0.134788	0.176793	0.138589	0.167001																																																									
7895	21.9306																																																																											
7896	21.9333	0.144314	0.140183	0.0872305	0.0772485	0.143693	0.0838746	0.164056	0.137742	0.209003	0.0741175	0.144269	0.209861	0.161706	0.14035	0.134784	0.176805	0.138595	0.166998																																																									
7897	21.9361	0.144332	0.140181	0.087235	0.0772499	0.143673	0.0838643	0.164061	0.137768	0.209014	0.0741199	0.144255	0.209849	0.161704	0.140351	0.134781	0.176805	0.1386	0.167008																																																									
7898	21.9389																																																																											
7899	21.9417	0.144317	0.140179	0.0872377	0.0772394	0.143684	0.0838523	0.164071	0.137758	0.20901	0.0741174	0.144267	0.209846	0.161704	0.140359	0.134787	0.176804	0.138585	0.167003																																																									
7900	21.9444																																																																											
7901	21.9472																																																																											
7902	21.95	0.144318	0.140167	0.087223	0.0772424	0.143656	0.0838712	0.164061	0.137754	0.209023	0.0741232	0.14426	0.209861	0.161653	0.140357	0.134774	0.176775	0.138613	0.167013																																																									
7903	21.9528																																																																											
7904	21.9556																																																																											
7905	21.9583	0.144306	0.140164	0.0872325	0.0772247	0.143659	0.0838797	0.164084	0.137739	0.209051	0.0741205	0.14424	0.209857	0.161652	0.140351	0.134754	0.176781	0.138579	0.166988																																																									
7906	21.9611	0.14432	0.140166	0.0872207	0.0772398	0.143657	0.0838619	0.16408	0.137761	0.209044	0.0741012	0.144249	0.209868	0.161796	0.140218	0.134709	0.176763	0.138599	0.166997																																																									
7907	21.9639																																																																											
7908	21.9667	0.144307	0.140143	0.0872324	0.07725	0.143648	0.08389	0.164082	0.137746	0.209051	0.0741091	0.144243	0.209872	0.161795	0.140206	0.134685	0.176787	0.138583	0.166982																																																									
7909	21.9694																																																																											
7910	21.9722																																																																											
7911	21.975	0.14431	0.140151	0.087212	0.0772385	0.143654	0.0838886	0.164084	0.137749	0.209059	0.0741053	0.144249	0.209879	0.161792	0.140213	0.134694	0.176807	0.13856	0.166965																																																									
7912	21.9778	0.144315	0.140162	0.0872082	0.0772202	0.143647	0.0838857	0.164095	0.137733	0.209057	0.0740308	0.144418	0.209942	0.162601	0.139861	0.135107	0.176802	0.138571	0.166966																																																									
7913	21.9806																																																																											
7914	21.9833	0.144317	0.140148	0.087203	0.0772495	0.143652	0.0838818	0.164069	0.137749	0.20906	0.0741166	0.144254	0.209875	0.161805	0.140195	0.1347	0.17681	0.138573	0.166944																																																									
7915	21.9861	0.144329	0.140155	0.087206	0.0772432	0.143663	0.0838762	0.164071	0.137746	0.209054	0.0741106	0.144263	0.209869	0.161821	0.140201	0.134682	0.176818	0.138565	0.166957																																																									
7916	21.9889																																																																											
7917	21.9917	0.144329	0.140149	0.0872146	0.0772557	0.143667	0.0838691	0.164065	0.13775	0.209057	0.0740937	0.144261	0.209868	0.161833	0.140209	0.134689	0.176827	0.138536	0.166956																																																									
7918	21.9944																																																																											
7919	21.9972																																																																											
7920	22	0.144341	0.14016	0.0872175	0.077242	0.143664	0.0838761	0.16407	0.137751	0.209042	0.074103	0.144265	0.209859	0.161825	0.140212	0.134702	0.176817	0.138568	0.166983																																																									
7921	22.0028																																																																											
7922	22.0056																																																																											
7923	22.0083	0.144309	0.140167	0.0872266	0.07725	0.143687	0.0838811	0.164054	0.137758	0.209029	0.0741205	0.144272	0.209873	0.161669	0.140363	0.134751	0.176786	0.138584	0.166994																																																									
7924	22.0111	0.14432	0.140187	0.0872328	0.0772665	0.143667	0.0838823	0.164052	0.137756	0.209045	0.0741145	0.144268	0.209868	0.161659	0.140377	0.134767	0.176765	0.138608	0.167005																																																									
7925	22.0139																																																																											
7926	22.0167	0.144312	0.140191	0.08723	0.0772467	0.143672	0.0838658	0.164081	0.13777	0.20905	0.0741136	0.144269	0.209862	0.161661	0.140369	0.134776	0.176761	0.138615	0.167007																																																									
7927	22.0194																																																																											
7928	22.0222																																																																											
7929	22.025	0.144319	0.140195	0.0872426	0.0772486	0.14367	0.0838563	0.164076	0.137766	0.209053	0.0741105	0.144256	0.209876	0.161636	0.14038	0.134778	0.176756	0.138604	0.167015																																																									
7930	22.0278	0.144307	0.140183	0.0872482	0.0772346	0.143654	0.0838523	0.164065	0.137754	0.20904	0.0741106	0.144269	0.20987	0.161631	0.140378	0.134792	0.176743	0.138625	0.167025																																																									
7931	22.0306	0.14429	0.14019	0.0872476	0.0772435	0.143656	0.0838661	0.164067	0.137763	0.209046	0.07411	0.144262	0.209858	0.16164	0.140366	0.13479	0.176738	0.138612	0.167034																																																									
7932	22.0333																																																																											
7933	22.0361																																																																											
7934	22.0389	0.144298	0.14017	0.0872501	0.0772336	0.143674	0.0838707	0.164059	0.137765	0.209042	0.074119	0.144257	0.209857	0.161649	0.140377	0.134795	0.176774	0.138598	0.167017																																																									
7935	22.0417																																																																											
7936	22.0444																																																																											
7937	22.0472	0.144306	0.140156	0.0872389	0.0772464	0.143648	0.0838874	0.164082	0.137747	0.209064	0.0740941	0.144259	0.20987	0.161679	0.140331	0.13477	0.176786	0.138585	0.166991																																																									
7938	22.05	0.144311	0.140162	0.0872329	0.0772301	0.143664	0.0838721	0.164063	0.137759	0.209053	0.0740976	0.144251	0.209878	0.162573	0.139881	0.135133	0.176823	0.138582	0.166985																																																									
7939	22.0528																																																																											
7940	22.0556	0.144321	0.140164	0.0872338	0.0772483	0.143658	0.0839006	0.164074	0.137729	0.209067	0.0740967	0.144267	0.209876	0.161685	0.140327	0.134766	0.1768	0.138573	0.166967																																																									
7941	22.0583																																																																											
7942	22.0611																																																																											
7943	22.0639	0.144333	0.140156	0.0872097	0.0772399	0.143666	0.0838679	0.164068	0.137733	0.209045	0.0741015	0.14426	0.209878	0.161687	0.140328	0.134735	0.176815	0.138558	0.166964																																																									
7944	22.0667	0.144316	0.14015	0.087217	0.0772427	0.143659	0.0838932	0.164053	0.13774	0.209056	0.0741109	0.144243	0.209865	0.161783	0.140203	0.134684	0.17682	0.138555	0.166952																																																									
7945	22.0694																																																																											
7946	22.0722	0.144318	0.140149	0.0871928	0.0772392	0.143668	0.0838759	0.164058	0.137742	0.209034	0.0741073	0.144248	0.209875	0.161665	0.140345	0.134716	0.176816	0.138556	0.16695																																																									
7947	22.075																																																																											
7948	22.0778																																																																											
7949	22.0806	0.144314	0.140163	0.0872136	0.0772489	0.143664	0.0838793	0.164067	0.137752	0.209043	0.0740289	0.144445	0.209934	0.161658	0.14034	0.134732	0.176775	0.138586	0.166957																																																									
7950	22.0833	0.144307	0.140164	0.0872063	0.077245	0.143665	0.0838746	0.164063	0.137746	0.209045	0.0741022	0.14425	0.209879	0.161644	0.140368	0.134732	0.176766	0.138596	0.166971																																																									
7951	22.0861																																																																											
7952	22.0889	0.144293	0.140165	0.0872176	0.0772381	0.143668	0.0838606	0.164065	0.137757	0.209043	0.0741203	0.144251	0.209871	0.161649	0.140359	0.13474	0.176775	0.138599	0.166984																																																									
7953	22.0917																																																																											
7954	22.0944																																																																											
7955	22.0972	0.144296	0.140183	0.0872295	0.0772259	0.143659	0.0838722	0.164068	0.137742	0.209048	0.0740295	0.144443	0.209928	0.161641	0.140372	0.134771	0.176762	0.138605	0.166999																																																									
7956	22.1	0.144304	0.140177	0.0872299	0.0772477	0.143651	0.083869	0.164067	0.137734	0.209048	0.0741081	0.144248	0.209863	0.161629	0.14038	0.134774	0.176768	0.138603	0.166996																																																									
7957	22.1028																																																																											
7958	22.1056	0.144305	0.140184	0.0872247	0.0772466	0.143659	0.0838746	0.164059	0.137763	0.209033	0.0741007	0.144271	0.209862	0.161672	0.140372	0.134783	0.176784	0.138608	0.167008																																																									
